<svg xmlns="http://www.w3.org/2000/svg" viewBox="0 0 96 96">
  <ellipse cx="48" cy="84" rx="22" ry="5" fill="#000" opacity="0.12"/>
  <!-- grey-green slime body -->
  <path d="M20 60c0-17 12-30 28-30s28 13 28 30c0 7-6 11-14 11H34c-8 0-14-4-14-11z" fill="#8FA98C"/>
  <path d="M20 60c0-17 12-30 28-30s28 13 28 30c0 4-2 7-6 9 1-3 2-6 2-10 0-15-11-26-24-26S22 44 22 59c0 4 1 7 2 10-2-2-4-5-4-9z" fill="#7C967A"/>
  <!-- glossy highlight -->
  <ellipse cx="40" cy="46" rx="9" ry="6" fill="#A6BCA3" opacity="0.7"/>
  <!-- little drip on top (chef-pot vibe) -->
  <circle cx="48" cy="29" r="4" fill="#8FA98C"/>
  <!-- eyes -->
  <circle cx="40" cy="58" r="3.4" fill="#5B463A"/>
  <circle cx="56" cy="58" r="3.4" fill="#5B463A"/>
  <circle cx="41.2" cy="56.8" r="1.1" fill="#fff"/>
  <circle cx="57.2" cy="56.8" r="1.1" fill="#fff"/>
  <!-- cheeks -->
  <circle cx="33" cy="63" r="2.6" fill="#E8A6A0" opacity="0.55"/>
  <circle cx="63" cy="63" r="2.6" fill="#E8A6A0" opacity="0.55"/>
  <!-- smile -->
  <path d="M44 64q4 4 8 0" fill="none" stroke="#5B463A" stroke-width="1.6" stroke-linecap="round"/>
</svg>
