<svg xmlns="http://www.w3.org/2000/svg" viewBox="0 0 96 96">
  <ellipse cx="48" cy="85" rx="20" ry="5" fill="#000" opacity="0.12"/>
  <!-- tail -->
  <path d="M68 70c8-2 11-9 8-15-2 5-7 6-11 7z" fill="#4FAF6D"/>
  <!-- ears -->
  <path d="M33 30l-3 14 13-4z" fill="#43A05F"/>
  <path d="M63 30l3 14-13-4z" fill="#43A05F"/>
  <path d="M34 34l-1 8 7-2z" fill="#E8A6A0" opacity="0.7"/>
  <path d="M62 34l1 8-7-2z" fill="#E8A6A0" opacity="0.7"/>
  <!-- body -->
  <path d="M30 68c-4-3-6-8-6-13 0-13 9-22 24-22s24 9 24 22c0 5-2 10-6 13z" fill="#52B873"/>
  <!-- head -->
  <circle cx="48" cy="48" r="20" fill="#5CC47E"/>
  <ellipse cx="42" cy="42" rx="7" ry="5" fill="#76D295" opacity="0.7"/>
  <!-- chef toque -->
  <path d="M37 30c0-4 4-6 7-5 1-3 7-3 8 0 3-1 7 1 7 5z" fill="#fff"/>
  <rect x="37" y="29" width="22" height="4" rx="2" fill="#EDEDED"/>
  <!-- eyes -->
  <circle cx="41" cy="49" r="3.2" fill="#5B463A"/>
  <circle cx="55" cy="49" r="3.2" fill="#5B463A"/>
  <circle cx="42.2" cy="47.8" r="1" fill="#fff"/>
  <circle cx="56.2" cy="47.8" r="1" fill="#fff"/>
  <!-- cheeks -->
  <circle cx="35" cy="54" r="2.6" fill="#E8A6A0" opacity="0.6"/>
  <circle cx="61" cy="54" r="2.6" fill="#E8A6A0" opacity="0.6"/>
  <!-- nose + mouth -->
  <path d="M46.5 53.5h3l-1.5 2z" fill="#5B463A"/>
  <path d="M48 55.5q-3 3-6 1M48 55.5q3 3 6 1" fill="none" stroke="#5B463A" stroke-width="1.4" stroke-linecap="round"/>
  <!-- whiskers -->
  <path d="M30 51l-6-1M30 55l-6 2M66 51l6-1M66 55l6 2" stroke="#3E8F58" stroke-width="1" stroke-linecap="round" fill="none"/>
</svg>
