<svg xmlns="http://www.w3.org/2000/svg" viewBox="0 0 96 96">
<defs>
<radialGradient id="g5" cx="50%" cy="42%" r="58%">
<stop offset="0%" stop-color="#FFE89A"/><stop offset="60%" stop-color="#FFC23D"/><stop offset="100%" stop-color="#F39A1E"/>
</radialGradient>
<radialGradient id="w5" cx="50%" cy="50%" r="50%">
<stop offset="0%" stop-color="#FFE08A" stop-opacity=".55"/><stop offset="100%" stop-color="#FFE08A" stop-opacity="0"/>
</radialGradient>
</defs>
<circle cx="48" cy="46" r="44" fill="url(#w5)"/>
<ellipse cx="48" cy="86" rx="18" ry="5" opacity=".12"/>
<path d="M48 70c-7 8-9 16-6 22 3-4 5-5 6-9 1 4 3 5 6 9 3-6 1-14-6-22z" fill="#FF8A2B"/>
<path d="M48 72c-3 6-4 11-2 15 1-3 1-4 2-6 1 2 1 3 2 6 2-4 1-9-2-15z" fill="#FFD24D"/>
<path d="M28 50c-13-7-22-4-25 4 6-2 9 0 12 3 2-3 5-2 8-1-1-3 1-5 5-6z" fill="#FFB23D"/>
<path d="M68 50c13-7 22-4 25 4-6-2-9 0-12 3-2-3-5-2-8-1 1-3-1-5-5-6z" fill="#FFB23D"/>
<path d="M30 51c-8-4-14-2-17 2 4-1 6 0 9 2 1-2 4-2 8-4z" fill="#FF8A2B" opacity=".8"/>
<path d="M66 51c8-4 14-2 17 2-4-1-6 0-9 2-1-2-4-2-8-4z" fill="#FF8A2B" opacity=".8"/>
<path d="M34 70c-5-4-8-10-8-17 0-12 9-21 22-21s22 9 22 21c0 7-3 13-8 17z" fill="url(#g5)"/>
<circle cx="48" cy="44" r="17" fill="url(#g5)"/>
<path d="M40 29c-1-6 1-10 4-12-1 4 1 6 2 9z" fill="#FF8A2B"/>
<path d="M56 29c1-6-1-10-4-12 1 4-1 6-2 9z" fill="#FF8A2B"/>
<path d="M48 27c-2-7 0-12 0-12s2 5 0 12z" fill="#FFD24D"/>
<path d="M44 50l4 5 4-5z" fill="#F0820E"/>
<circle cx="42" cy="44" r="3" fill="#5B463A"/><circle cx="54" cy="44" r="3" fill="#5B463A"/>
<circle cx="43.1" cy="42.9" r="1" fill="#fff"/><circle cx="55.1" cy="42.9" r="1" fill="#fff"/>
<path d="M48 60l1.4 3 3 1.4-3 1.4-1.4 3-1.4-3-3-1.4 3-1.4z" fill="#FFF6D8"/>
<circle cx="36" cy="48" r="2.2" fill="#FF7A4D" opacity=".45"/><circle cx="60" cy="48" r="2.2" fill="#FF7A4D" opacity=".45"/>
</svg>
