<svg xmlns="http://www.w3.org/2000/svg" viewBox="0 0 96 96">
  <defs>
    <linearGradient id="cap" x1="0" y1="0" x2="0" y2="1">
      <stop offset="0" stop-color="#F2994A"/>
      <stop offset="1" stop-color="#E07B39"/>
    </linearGradient>
  </defs>
  <ellipse cx="48" cy="85" rx="22" ry="5" fill="#3A2A1E" opacity="0.12"/>
  <!-- gacha capsule: rounded cube -->
  <rect x="20" y="20" width="56" height="56" rx="16" fill="#FFF7EC" stroke="#5B463A" stroke-width="1.4"/>
  <!-- caramel top half -->
  <path d="M20 48 L20 36 Q20 20 36 20 L60 20 Q76 20 76 36 L76 48 Z" fill="url(#cap)"/>
  <path d="M20 48 L76 48" stroke="#5B463A" stroke-width="1.4"/>
  <!-- band button -->
  <circle cx="48" cy="48" r="6" fill="#FFF7EC" stroke="#5B463A" stroke-width="1.2"/>
  <!-- highlight -->
  <rect x="28" y="28" width="10" height="8" rx="4" fill="#FFFFFF" opacity="0.5"/>
  <!-- sparkle -->
  <path d="M62 58 l1.4 3.2 3.2 1.4 -3.2 1.4 -1.4 3.2 -1.4-3.2 -3.2-1.4 3.2-1.4 Z" fill="#FFFFFF"/>
  <circle cx="34" cy="64" r="2" fill="#F4B740"/>
</svg>
