<svg xmlns="http://www.w3.org/2000/svg" viewBox="0 0 96 96">
  <defs>
    <linearGradient id="blob" x1="0" y1="0" x2="0" y2="1">
      <stop offset="0" stop-color="#F2C14E"/>
      <stop offset="1" stop-color="#F4B740"/>
    </linearGradient>
  </defs>
  <ellipse cx="48" cy="84" rx="22" ry="5" fill="#3A2A1E" opacity="0.12"/>
  <!-- soft butter blob -->
  <path d="M48 16 Q66 32 70 54 Q72 76 48 80 Q24 76 26 54 Q30 32 48 16 Z" fill="url(#blob)"/>
  <path d="M48 16 Q66 32 70 54 Q72 76 48 80 Q24 76 26 54 Q30 32 48 16 Z" fill="none" stroke="#E07B39" stroke-width="1.4"/>
  <!-- soft top highlight -->
  <path d="M44 26 Q34 38 34 54 Q34 62 40 64 Q34 50 46 32 Z" fill="#FFF7EC" opacity="0.6"/>
  <!-- shine -->
  <ellipse cx="40" cy="38" rx="5" ry="8" fill="#FFFFFF" opacity="0.8"/>
  <circle cx="56" cy="60" r="3" fill="#FFFFFF" opacity="0.6"/>
</svg>
