<svg xmlns="http://www.w3.org/2000/svg" viewBox="0 0 96 96">
  <ellipse cx="48" cy="86" rx="22" ry="5" fill="#3A2A1E" opacity="0.12"/>
  <!-- body -->
  <ellipse cx="48" cy="58" rx="22" ry="21" fill="#FAD7B0"/>
  <ellipse cx="48" cy="55" rx="19" ry="17" fill="#FFF7EC"/>
  <!-- cheeks -->
  <circle cx="36" cy="58" r="4.5" fill="#F4A6C0"/>
  <circle cx="60" cy="58" r="4.5" fill="#F4A6C0"/>
  <!-- eyes -->
  <circle cx="42" cy="52" r="2.6" fill="#3A2A1E"/>
  <circle cx="54" cy="52" r="2.6" fill="#3A2A1E"/>
  <!-- smile -->
  <path d="M44 59 Q48 63 52 59" fill="none" stroke="#5B463A" stroke-width="2" stroke-linecap="round"/>
  <!-- egg shell hat -->
  <path d="M30 40 Q31 24 48 23 Q65 24 66 40 Q60 36 56 41 Q52 35 48 41 Q44 35 40 41 Q36 36 30 40 Z" fill="#FFFFFF"/>
  <path d="M30 40 Q31 24 48 23 Q65 24 66 40 Q60 36 56 41 Q52 35 48 41 Q44 35 40 41 Q36 36 30 40 Z" fill="none" stroke="#5B463A" stroke-width="1.4" stroke-linejoin="round"/>
  <ellipse cx="42" cy="32" rx="3" ry="4" fill="#FFF7EC"/>
</svg>
