<svg xmlns="http://www.w3.org/2000/svg" viewBox="0 0 96 96">
  <ellipse cx="48" cy="87" rx="24" ry="5" fill="#3A2A1E" opacity="0.12"/>
  <!-- body -->
  <ellipse cx="48" cy="56" rx="25" ry="26" fill="#FAD7B0"/>
  <ellipse cx="48" cy="54" rx="21" ry="21" fill="#FFF7EC"/>
  <!-- bib -->
  <path d="M34 60 Q48 56 62 60 Q60 74 48 76 Q36 74 34 60 Z" fill="#9AD9C9"/>
  <path d="M34 60 Q48 56 62 60 Q60 74 48 76 Q36 74 34 60 Z" fill="none" stroke="#5B463A" stroke-width="1.2"/>
  <circle cx="48" cy="65" r="3" fill="#FFF7EC"/>
  <!-- cheeks -->
  <circle cx="34" cy="52" r="4.5" fill="#F4A6C0"/>
  <circle cx="62" cy="52" r="4.5" fill="#F4A6C0"/>
  <!-- eyes -->
  <circle cx="42" cy="46" r="2.8" fill="#3A2A1E"/>
  <circle cx="54" cy="46" r="2.8" fill="#3A2A1E"/>
  <!-- smile -->
  <path d="M43 53 Q48 58 53 53" fill="none" stroke="#5B463A" stroke-width="2" stroke-linecap="round"/>
  <!-- little tuft -->
  <path d="M48 28 Q46 22 50 21 Q49 25 52 27 Z" fill="#F2C14E"/>
  <!-- spoon -->
  <ellipse cx="74" cy="44" rx="5" ry="6.5" fill="#F4B740"/>
  <ellipse cx="74" cy="44" rx="2.5" ry="3.5" fill="#FFF7EC"/>
  <rect x="72.5" y="49" width="3" height="20" rx="1.5" fill="#F4B740"/>
</svg>
