<svg xmlns="http://www.w3.org/2000/svg" viewBox="0 0 96 96">
  <ellipse cx="48" cy="87" rx="24" ry="5" fill="#3A2A1E" opacity="0.12"/>
  <!-- body -->
  <ellipse cx="48" cy="55" rx="25" ry="27" fill="#FAD7B0"/>
  <ellipse cx="48" cy="53" rx="21" ry="22" fill="#FFF7EC"/>
  <!-- bow tie -->
  <path d="M48 68 L40 64 L40 72 Z" fill="#F2994A"/>
  <path d="M48 68 L56 64 L56 72 Z" fill="#F2994A"/>
  <circle cx="48" cy="68" r="2.4" fill="#E07B39"/>
  <!-- cheeks -->
  <circle cx="34" cy="51" r="4.5" fill="#F4A6C0"/>
  <circle cx="62" cy="51" r="4.5" fill="#F4A6C0"/>
  <!-- eyes -->
  <circle cx="42" cy="45" r="2.8" fill="#3A2A1E"/>
  <circle cx="54" cy="45" r="2.8" fill="#3A2A1E"/>
  <circle cx="43" cy="44" r="0.9" fill="#FFFFFF"/>
  <circle cx="55" cy="44" r="0.9" fill="#FFFFFF"/>
  <!-- smile -->
  <path d="M43 52 Q48 57 53 52" fill="none" stroke="#5B463A" stroke-width="2" stroke-linecap="round"/>
  <!-- tuft -->
  <path d="M48 27 Q45 20 50 19 Q49 24 53 26 Z" fill="#F2C14E"/>
  <!-- fork raised -->
  <rect x="71" y="40" width="3" height="22" rx="1.5" fill="#F4B740"/>
  <rect x="69" y="30" width="2" height="12" rx="1" fill="#F4B740"/>
  <rect x="72" y="30" width="2" height="12" rx="1" fill="#F4B740"/>
  <rect x="75" y="30" width="2" height="12" rx="1" fill="#F4B740"/>
  <rect x="69" y="40" width="8" height="3" rx="1.5" fill="#F4B740"/>
</svg>
