<svg xmlns="http://www.w3.org/2000/svg" viewBox="0 0 96 96">
  <ellipse cx="48" cy="88" rx="25" ry="5" fill="#3A2A1E" opacity="0.12"/>
  <!-- body -->
  <ellipse cx="48" cy="57" rx="26" ry="27" fill="#FAD7B0"/>
  <ellipse cx="48" cy="55" rx="22" ry="22" fill="#FFF7EC"/>
  <!-- apron -->
  <path d="M36 60 Q48 57 60 60 L62 80 Q48 84 34 80 Z" fill="#FFFFFF"/>
  <path d="M36 60 Q48 57 60 60 L62 80 Q48 84 34 80 Z" fill="none" stroke="#5B463A" stroke-width="1.2"/>
  <rect x="44" y="64" width="8" height="9" rx="1.5" fill="#F2994A"/>
  <!-- cheeks -->
  <circle cx="34" cy="53" r="4.5" fill="#F4A6C0"/>
  <circle cx="62" cy="53" r="4.5" fill="#F4A6C0"/>
  <!-- eyes -->
  <circle cx="42" cy="47" r="2.8" fill="#3A2A1E"/>
  <circle cx="54" cy="47" r="2.8" fill="#3A2A1E"/>
  <circle cx="43" cy="46" r="0.9" fill="#FFFFFF"/>
  <circle cx="55" cy="46" r="0.9" fill="#FFFFFF"/>
  <!-- smile -->
  <path d="M43 54 Q48 59 53 54" fill="none" stroke="#5B463A" stroke-width="2" stroke-linecap="round"/>
  <!-- chef toque -->
  <rect x="34" y="32" width="28" height="9" rx="3" fill="#FFFFFF" stroke="#5B463A" stroke-width="1.2"/>
  <circle cx="38" cy="26" r="8" fill="#FFFFFF"/>
  <circle cx="48" cy="23" r="9" fill="#FFFFFF"/>
  <circle cx="58" cy="26" r="8" fill="#FFFFFF"/>
  <path d="M30 33 Q30 22 40 21 Q48 16 56 21 Q66 22 66 33 Z" fill="#FFFFFF" stroke="#5B463A" stroke-width="1.2" stroke-linejoin="round"/>
</svg>
