<svg xmlns="http://www.w3.org/2000/svg" viewBox="0 0 96 96">
  <ellipse cx="48" cy="88" rx="26" ry="5" fill="#3A2A1E" opacity="0.12"/>
  <!-- body -->
  <ellipse cx="48" cy="58" rx="27" ry="28" fill="#FAD7B0"/>
  <ellipse cx="48" cy="56" rx="23" ry="23" fill="#FFF7EC"/>
  <!-- apron -->
  <path d="M35 61 Q48 58 61 61 L63 81 Q48 85 33 81 Z" fill="#FFFFFF"/>
  <path d="M35 61 Q48 58 61 61 L63 81 Q48 85 33 81 Z" fill="none" stroke="#5B463A" stroke-width="1.2"/>
  <rect x="44" y="65" width="8" height="9" rx="1.5" fill="#F2994A"/>
  <!-- cheeks -->
  <circle cx="33" cy="54" r="4.5" fill="#F4A6C0"/>
  <circle cx="63" cy="54" r="4.5" fill="#F4A6C0"/>
  <!-- eyes -->
  <circle cx="42" cy="48" r="2.9" fill="#3A2A1E"/>
  <circle cx="54" cy="48" r="2.9" fill="#3A2A1E"/>
  <circle cx="43" cy="47" r="0.9" fill="#FFFFFF"/>
  <circle cx="55" cy="47" r="0.9" fill="#FFFFFF"/>
  <!-- confident smile -->
  <path d="M42 55 Q48 61 54 55" fill="none" stroke="#5B463A" stroke-width="2" stroke-linecap="round"/>
  <!-- chef toque -->
  <rect x="34" y="34" width="28" height="8" rx="3" fill="#FFFFFF" stroke="#5B463A" stroke-width="1.2"/>
  <path d="M30 35 Q30 25 40 24 Q48 19 56 24 Q66 25 66 35 Z" fill="#FFFFFF" stroke="#5B463A" stroke-width="1.2" stroke-linejoin="round"/>
  <!-- gold crown on top -->
  <path d="M38 24 L38 16 L43 20 L48 13 L53 20 L58 16 L58 24 Z" fill="#F4B740" stroke="#E07B39" stroke-width="1"/>
  <circle cx="48" cy="14" r="1.6" fill="#FFFFFF"/>
</svg>
