<svg xmlns="http://www.w3.org/2000/svg" viewBox="0 0 96 96">
  <ellipse cx="48" cy="83" rx="27" ry="5" fill="#3A2A1E" opacity="0.12"/>
  <path d="M20 48c0-13 11-23 28-23 13 0 22 6 27 14 2 3 5 5 8 5 0 0-3 4-3 4s3 4 3 4c-3 0-6 2-8 5-5 8-14 14-27 14C31 71 20 61 20 48Z" fill="#F2C14E" stroke="#5B463A" stroke-width="2" stroke-linejoin="round"/>
  <path d="M28 40c8-3 14 3 18 0M28 56c8 3 14-3 18 0" fill="none" stroke="#E07B39" stroke-width="2.4" stroke-linecap="round"/>
  <path d="M48 33c6 0 12 4 12 15s-6 15-12 15" fill="none" stroke="#E07B39" stroke-width="2.4" stroke-linecap="round"/>
  <circle cx="32" cy="44" r="2.4" fill="#5B463A"/>
</svg>
