<svg xmlns="http://www.w3.org/2000/svg" viewBox="0 0 96 96">
  <ellipse cx="48" cy="84" rx="28" ry="5" fill="#3A2A1E" opacity="0.12"/>
  <path d="M18 52h60c0 13-13 22-30 22S18 65 18 52Z" fill="#FFF3E2" stroke="#5B463A" stroke-width="2" stroke-linejoin="round"/>
  <ellipse cx="48" cy="52" rx="30" ry="9" fill="#E2574C" stroke="#5B463A" stroke-width="2"/>
  <ellipse cx="48" cy="50" rx="30" ry="8" fill="#E2574C"/>
  <g stroke="#E07B39" stroke-width="1.6">
    <rect x="33" y="40" width="9" height="16" rx="4.5" fill="#FBE3C8" transform="rotate(-12 37 48)"/>
    <rect x="46" y="42" width="9" height="16" rx="4.5" fill="#FBE3C8" transform="rotate(8 50 50)"/>
    <rect x="56" y="40" width="9" height="16" rx="4.5" fill="#FBE3C8" transform="rotate(-6 60 48)"/>
    <rect x="40" y="48" width="9" height="15" rx="4.5" fill="#FBE3C8" transform="rotate(16 44 55)"/>
  </g>
  <circle cx="30" cy="49" r="1.8" fill="#E07B39"/>
  <circle cx="66" cy="50" r="1.8" fill="#E07B39"/>
</svg>
