<svg xmlns="http://www.w3.org/2000/svg" viewBox="0 0 96 96">
  <ellipse cx="48" cy="84" rx="24" ry="5" fill="#3A2A1E" opacity="0.12"/>
  <rect x="42" y="58" width="9" height="22" rx="4.5" fill="#FFF3E2" stroke="#5B463A" stroke-width="2"/>
  <path d="M30 30c10-12 30-10 36 4 6 12-3 26-17 28-13 2-25-6-26-17-1-7 2-12 7-15Z" fill="#F2994A" stroke="#5B463A" stroke-width="2" stroke-linejoin="round"/>
  <path d="M30 30c10-12 30-10 36 4 6 12-3 26-17 28" fill="#E07B39" opacity="0.45"/>
  <g fill="#E07B39">
    <circle cx="38" cy="34" r="2"/><circle cx="48" cy="31" r="2.2"/><circle cx="57" cy="37" r="2"/>
    <circle cx="34" cy="44" r="2"/><circle cx="45" cy="42" r="2.2"/><circle cx="55" cy="47" r="2"/>
    <circle cx="40" cy="52" r="2"/><circle cx="51" cy="53" r="2"/><circle cx="60" cy="44" r="1.8"/>
  </g>
</svg>
