<svg xmlns="http://www.w3.org/2000/svg" viewBox="0 0 96 96">
  <ellipse cx="48" cy="83" rx="26" ry="5" fill="#3A2A1E" opacity="0.12"/>
  <circle cx="48" cy="48" r="32" fill="#C58A5A" stroke="#5B463A" stroke-width="2"/>
  <path d="M48 18c16 0 30 13 30 30 0-6-13-11-30-11s-30 5-30 11c0-17 14-30 30-30Z" fill="#F4A6C0"/>
  <circle cx="48" cy="48" r="11" fill="#C58A5A" stroke="#5B463A" stroke-width="2"/>
  <path d="M16 47c0-6 14-10 32-10s32 4 32 10c0 4-3 6-6 6-7-1-15 8-26 8s-19-9-26-8c-3 0-6-2-6-6Z" fill="#F4A6C0"/>
  <g stroke-width="3" stroke-linecap="round">
    <path d="M30 38l4 5" stroke="#F2C14E"/><path d="M44 33l-1 6" stroke="#7FB069"/>
    <path d="M58 35l3 5" stroke="#6FA8DC"/><path d="M68 44l-5 2" stroke="#F2C14E"/>
    <path d="M28 52l5 1" stroke="#C06CC9"/><path d="M52 56l3-4" stroke="#7FB069"/>
    <path d="M40 58l-3-4" stroke="#6FA8DC"/>
  </g>
</svg>
