<svg xmlns="http://www.w3.org/2000/svg" viewBox="0 0 96 96">
  <ellipse cx="48" cy="84" rx="26" ry="5" fill="#3A2A1E" opacity="0.12"/>
  <path d="M24 40h48l-8 36c-1 3-3 4-16 4s-15-1-16-4L24 40Z" fill="#FFF3E2" stroke="#5B463A" stroke-width="2" stroke-linejoin="round"/>
  <rect x="24" y="52" width="48" height="9" fill="#F4A6C0"/>
  <rect x="24" y="64" width="46" height="8" fill="#E2574C" opacity="0.85"/>
  <path d="M22 38c0-5 12-8 26-8s26 3 26 8-12 8-26 8-26-3-26-8Z" fill="#FFF7EC" stroke="#5B463A" stroke-width="2"/>
  <path d="M26 37c4-4 7 2 11-1s7 2 11-1 7 2 11-1 6 3 9 1" fill="none" stroke="#F4A6C0" stroke-width="2.4" stroke-linecap="round"/>
  <circle cx="48" cy="30" r="6" fill="#E2574C" stroke="#5B463A" stroke-width="1.6"/>
  <path d="M48 24c2-3 5-3 6-5" fill="none" stroke="#7FB069" stroke-width="2.4" stroke-linecap="round"/>
</svg>
