<svg xmlns="http://www.w3.org/2000/svg" viewBox="0 0 96 96">
  <ellipse cx="48" cy="84" rx="26" ry="5" fill="#3A2A1E" opacity="0.12"/>
  <ellipse cx="48" cy="60" rx="28" ry="13" fill="#F4A6C0" stroke="#5B463A" stroke-width="2"/>
  <path d="M22 60c0-5 12-9 26-9s26 4 26 9" fill="none" stroke="#5B463A" stroke-width="1.6"/>
  <ellipse cx="48" cy="54" rx="26" ry="7" fill="#FFF3E2"/>
  <ellipse cx="48" cy="50" rx="28" ry="12" fill="#F4A6C0" stroke="#5B463A" stroke-width="2"/>
  <g fill="#E07B39" opacity="0.5"><circle cx="26" cy="58" r="1.6"/><circle cx="32" cy="64" r="1.6"/><circle cx="64" cy="64" r="1.6"/><circle cx="70" cy="58" r="1.6"/><circle cx="24" cy="48" r="1.6"/><circle cx="72" cy="48" r="1.6"/></g>
  <ellipse cx="48" cy="33" rx="28" ry="13" fill="#F6C453" stroke="#5B463A" stroke-width="2"/>
  <path d="M20 33c0 5 12 9 28 9s28-4 28-9" fill="none" stroke="#5B463A" stroke-width="1.6"/>
  <ellipse cx="48" cy="27" rx="26" ry="8" fill="#FFE9C2"/>
</svg>
