<svg xmlns="http://www.w3.org/2000/svg" viewBox="0 0 96 96">
  <ellipse cx="48" cy="80" rx="28" ry="5" fill="#3A2A1E" opacity="0.12"/>
  <rect x="16" y="50" width="64" height="24" rx="12" fill="#FFF7EC" stroke="#5B463A" stroke-width="2"/>
  <g fill="#EADBC4"><circle cx="28" cy="62" r="2"/><circle cx="40" cy="66" r="2"/><circle cx="52" cy="61" r="2"/><circle cx="64" cy="65" r="2"/><circle cx="34" cy="56" r="1.8"/><circle cx="58" cy="56" r="1.8"/></g>
  <path d="M16 46c0-9 14-16 32-16s32 7 32 16c0 5-5 8-12 8H28c-7 0-12-3-12-8Z" fill="#F2994A" stroke="#5B463A" stroke-width="2" stroke-linejoin="round"/>
  <path d="M22 42c5-4 11 2 16-1s11 2 16-1 11 2 18-1" fill="none" stroke="#FFF3E2" stroke-width="2.6" stroke-linecap="round" opacity="0.7"/>
  <path d="M26 38c4-3 9 1 13-1s9 1 13-1 9 2 14 0" fill="none" stroke="#E07B39" stroke-width="2" stroke-linecap="round" opacity="0.6"/>
  <rect x="44" y="55" width="8" height="16" rx="3" fill="#7A4E2D" opacity="0.85"/>
</svg>
