<svg xmlns="http://www.w3.org/2000/svg" viewBox="0 0 96 96">
  <ellipse cx="48" cy="84" rx="30" ry="5" fill="#3A2A1E" opacity="0.12"/>
  <ellipse cx="48" cy="60" rx="38" ry="14" fill="#FFF7EC" stroke="#5B463A" stroke-width="2"/>
  <ellipse cx="48" cy="58" rx="30" ry="9" fill="#FFF3E2"/>
  <path d="M30 52c0-8 9-14 20-14 12 0 19 6 19 13s-8 12-20 12c-11 0-19-4-19-11Z" fill="#A0522D" stroke="#5B463A" stroke-width="2" stroke-linejoin="round"/>
  <path d="M30 52c0-8 9-14 20-14 12 0 19 6 19 13" fill="#C26B40" opacity="0.6"/>
  <path d="M37 47l8 4M48 44l9 4M40 56l8 3M52 53l9 3" stroke="#5B463A" stroke-width="1.6" stroke-linecap="round" opacity="0.55"/>
  <path d="M64 40c4-3 8-2 11-5M70 38c1-3 4-4 4-7" fill="none" stroke="#7FB069" stroke-width="2.6" stroke-linecap="round"/>
  <circle cx="74" cy="33" r="2" fill="#7FB069"/>
</svg>
