<svg xmlns="http://www.w3.org/2000/svg" viewBox="0 0 96 96">
  <ellipse cx="48" cy="84" rx="30" ry="5" fill="#3A2A1E" opacity="0.12"/>
  <ellipse cx="48" cy="58" rx="36" ry="16" fill="#FFF7EC" stroke="#5B463A" stroke-width="2"/>
  <ellipse cx="48" cy="56" rx="29" ry="11" fill="#FFF3E2"/>
  <path d="M22 56c4-7 9 1 14-3s10 3 15-2 11 2 16-2 8 2 11-1c-2 9-13 15-26 15-12 0-26-2-30-7Z" fill="#F2C14E" stroke="#5B463A" stroke-width="1.6" stroke-linejoin="round"/>
  <path d="M26 53c5-5 9 2 14-2M40 58c5-4 9 2 15-2M30 60c4-3 9 1 13-2" fill="none" stroke="#E07B39" stroke-width="2" stroke-linecap="round"/>
  <path d="M55 50c5-4 9 1 14-2" fill="none" stroke="#F6C453" stroke-width="3" stroke-linecap="round"/>
  <circle cx="44" cy="49" r="7" fill="#E2574C" stroke="#5B463A" stroke-width="1.6"/>
  <path d="M44 43c1-2 3-2 4-4" fill="none" stroke="#7FB069" stroke-width="2.2" stroke-linecap="round"/>
  <ellipse cx="41" cy="47" rx="2" ry="2.6" fill="#FFF7EC" opacity="0.7"/>
</svg>
