<svg xmlns="http://www.w3.org/2000/svg" viewBox="0 0 96 96">
  <ellipse cx="48" cy="80" rx="32" ry="6" fill="#3A2A1E" opacity="0.12"/>
  <ellipse cx="48" cy="66" rx="38" ry="11" fill="#FFF3E2" stroke="#5B463A" stroke-width="1.5"/>
  <ellipse cx="48" cy="63" rx="30" ry="8" fill="#FFF7EC"/>
  <path d="M30 60 q-3 -8 5 -10 q3 -6 10 -2 q6 -4 9 2 q8 0 5 9 q4 4 -2 7 q-15 5 -29 -1 q-4 -2 2 -5 z" fill="#F2994A"/>
  <path d="M44 50 q5 -5 11 -1 q7 1 4 8 q3 4 -3 6 q-9 3 -17 -1 q-2 -4 4 -5 q-2 -5 1 -7 z" fill="#E07B39"/>
  <path d="M58 58 q5 -3 8 1 q4 2 -1 6 q-7 3 -12 0 q-1 -3 5 -4 z" fill="#F2C14E"/>
  <path d="M28 64 q40 6 40 -2" fill="none" stroke="#E07B39" stroke-width="1.5" stroke-linecap="round" opacity="0.6"/>
</svg>
