<svg xmlns="http://www.w3.org/2000/svg" viewBox="0 0 96 96">
  <ellipse cx="48" cy="82" rx="28" ry="6" fill="#3A2A1E" opacity="0.12"/>
  <path d="M18 56 Q48 52 78 56 Q73 80 48 82 Q23 80 18 56 Z" fill="#6FA8DC" stroke="#5B463A" stroke-width="1.5"/>
  <path d="M23 57 Q48 54 73 57 Q69 74 48 76 Q27 74 23 57 Z" fill="#9AD9C9" opacity="0.5"/>
  <path d="M28 54 Q34 28 48 26 Q62 28 68 54 Q58 60 48 60 Q38 60 28 54 Z" fill="#FFF7EC"/>
  <path d="M30 52 Q40 48 48 52 Q44 56 38 55 Z" fill="#FFF3E2"/>
  <path d="M52 50 Q62 47 66 53 Q58 57 52 55 Z" fill="#FFF3E2"/>
  <circle cx="42" cy="40" r="5" fill="#E2574C"/>
  <circle cx="55" cy="44" r="4.5" fill="#C06CC9"/>
  <circle cx="48" cy="34" r="4" fill="#F4A6C0"/>
  <circle cx="40" cy="40" r="1.3" fill="#FFF7EC"/>
  <circle cx="53" cy="44" r="1.2" fill="#FFF7EC"/>
</svg>
