<svg xmlns="http://www.w3.org/2000/svg" viewBox="0 0 96 96">
  <ellipse cx="48" cy="84" rx="20" ry="5" fill="#3A2A1E" opacity="0.12"/>
  <path d="M38 50 L58 50 L48 86 Z" fill="#F2C14E" stroke="#5B463A" stroke-width="1.5"/>
  <path d="M42 58 L54 58 M44 66 L52 66" stroke="#E07B39" stroke-width="1.2" stroke-linecap="round" opacity="0.7"/>
  <path d="M40 56 L56 56" stroke="#FFF7EC" stroke-width="2.5" stroke-linecap="round"/>
  <path d="M34 50 Q34 40 48 40 Q62 40 62 50 Q62 53 58 53 L38 53 Q34 53 34 50 Z" fill="#FFF3E2" stroke="#5B463A" stroke-width="1.5"/>
  <path d="M37 41 Q37 30 48 30 Q59 30 59 41 Q59 44 55 44 L41 44 Q37 44 37 41 Z" fill="#FFF7EC" stroke="#5B463A" stroke-width="1.5"/>
  <path d="M40 32 Q40 22 48 22 Q56 22 56 32 Q56 35 52 35 L44 35 Q40 35 40 32 Z" fill="#FFF3E2" stroke="#5B463A" stroke-width="1.5"/>
  <circle cx="48" cy="20" r="3.5" fill="#FFF7EC" stroke="#5B463A" stroke-width="1.5"/>
</svg>
