<svg xmlns="http://www.w3.org/2000/svg" viewBox="0 0 96 96">
  <ellipse cx="46" cy="82" rx="22" ry="5" fill="#3A2A1E" opacity="0.12"/>
  <path d="M30 36 L62 36 L58 80 Q57 84 52 84 L40 84 Q35 84 34 80 Z" fill="#FFF3E2" stroke="#5B463A" stroke-width="1.5" opacity="0.95"/>
  <path d="M31 50 L61 50 L58 80 Q57 84 52 84 L40 84 Q35 84 34 80 Z" fill="#C9956A" opacity="0.55"/>
  <rect x="28" y="32" width="36" height="6" rx="3" fill="#FFF7EC" stroke="#5B463A" stroke-width="1.5"/>
  <line x1="54" y1="20" x2="50" y2="62" stroke="#E2574C" stroke-width="4" stroke-linecap="round"/>
  <circle cx="40" cy="74" r="3.5" fill="#3A2A1E"/>
  <circle cx="50" cy="76" r="3.5" fill="#3A2A1E"/>
  <circle cx="46" cy="68" r="3.5" fill="#3A2A1E"/>
  <circle cx="54" cy="70" r="3" fill="#3A2A1E"/>
  <circle cx="41" cy="66" r="3" fill="#3A2A1E"/>
</svg>
