<svg xmlns="http://www.w3.org/2000/svg" viewBox="0 0 96 96">
  <ellipse cx="48" cy="84" rx="28" ry="5" fill="#3A2A1E" opacity="0.12"/>
  <path d="M24 44h48l-4 30a6 6 0 0 1-6 5H34a6 6 0 0 1-6-5z" fill="#FFF7EC" stroke="#5B463A" stroke-width="2" stroke-linejoin="round"/>
  <ellipse cx="48" cy="44" rx="24" ry="7" fill="#FFF3E2" stroke="#5B463A" stroke-width="2"/>
  <ellipse cx="48" cy="43" rx="18" ry="4.5" fill="#FFFFFF"/>
  <g fill="#FFFFFF" stroke="#5B463A" stroke-width="0.8">
    <circle cx="40" cy="42" r="2.4"/><circle cx="48" cy="40" r="2.4"/><circle cx="56" cy="42" r="2.4"/>
    <circle cx="44" cy="45" r="2.4"/><circle cx="52" cy="45" r="2.4"/>
  </g>
  <rect x="30" y="56" width="36" height="16" rx="3" fill="#7FB069"/>
  <rect x="30" y="56" width="36" height="6" rx="3" fill="#9AD9C9"/>
  <path d="M36 66h24" stroke="#FFF7EC" stroke-width="2" stroke-linecap="round" opacity="0.7"/>
  <circle cx="38" cy="60" r="1.6" fill="#FFF7EC"/>
</svg>
