<svg xmlns="http://www.w3.org/2000/svg" viewBox="0 0 96 96">
  <ellipse cx="48" cy="85" rx="30" ry="5" fill="#3A2A1E" opacity="0.12"/>
  <path d="M18 40h60v34a6 6 0 0 1-6 6H24a6 6 0 0 1-6-6z" fill="#C99B6E" stroke="#5B463A" stroke-width="2" stroke-linejoin="round"/>
  <path d="M18 40l30 8 30-8-8-10H26z" fill="#D9B188" stroke="#5B463A" stroke-width="2" stroke-linejoin="round"/>
  <path d="M48 48v32" stroke="#5B463A" stroke-width="1.4" opacity="0.35"/>
  <g stroke="#5B463A" stroke-width="1.6" stroke-linejoin="round">
    <path d="M26 30l8 16-6 4-8-14z" fill="#F4A6C0"/>
    <path d="M44 30l4 18 4-18z" fill="#F2C14E"/>
    <path d="M70 30l-8 16 6 4 8-14z" fill="#7FB069"/>
  </g>
  <circle cx="30" cy="36" r="1.6" fill="#FFF7EC"/>
  <circle cx="48" cy="38" r="1.6" fill="#FFF7EC"/>
  <circle cx="66" cy="36" r="1.6" fill="#FFF7EC"/>
  <path d="M24 62h12M24 70h8" stroke="#5B463A" stroke-width="1.6" stroke-linecap="round" opacity="0.4"/>
</svg>
