<svg xmlns="http://www.w3.org/2000/svg" viewBox="0 0 96 96">
  <ellipse cx="48" cy="85" rx="30" ry="5" fill="#3A2A1E" opacity="0.12"/>
  <path d="M20 38h56v36a6 6 0 0 1-6 6H26a6 6 0 0 1-6-6z" fill="#FFF7EC" stroke="#5B463A" stroke-width="2" stroke-linejoin="round"/>
  <path d="M20 38l8-12h40l8 12z" fill="#F2994A" stroke="#5B463A" stroke-width="2" stroke-linejoin="round"/>
  <path d="M30 26v12M48 26v12M66 26v12" stroke="#5B463A" stroke-width="1.4" opacity="0.4"/>
  <rect x="26" y="46" width="44" height="28" rx="4" fill="#FFF3E2" stroke="#5B463A" stroke-width="1.4"/>
  <circle cx="37" cy="58" r="7" fill="#E2574C" stroke="#5B463A" stroke-width="1.4"/>
  <path d="M37 51c2-2 5-1 4 2" fill="none" stroke="#7FB069" stroke-width="2" stroke-linecap="round"/>
  <circle cx="57" cy="56" r="6" fill="#F2C14E" stroke="#5B463A" stroke-width="1.4"/>
  <path d="M44 68q6-6 14-2" fill="#7FB069" stroke="#5B463A" stroke-width="1.4" stroke-linejoin="round"/>
  <circle cx="48" cy="64" r="3" fill="#9AD9C9"/>
</svg>
