<svg xmlns="http://www.w3.org/2000/svg" viewBox="0 0 96 96">
  <ellipse cx="48" cy="85" rx="26" ry="5" fill="#3A2A1E" opacity="0.12"/>
  <rect x="30" y="14" width="36" height="66" rx="4" fill="#6FA8DC" stroke="#5B463A" stroke-width="2"/>
  <rect x="30" y="14" width="36" height="66" rx="4" fill="#FFFFFF" opacity="0.08"/>
  <rect x="22" y="40" width="16" height="40" rx="3" fill="#B7C2CC" stroke="#5B463A" stroke-width="2"/>
  <g fill="#FFF7EC">
    <rect x="36" y="22" width="6" height="6" rx="1"/><rect x="45" y="22" width="6" height="6" rx="1"/><rect x="54" y="22" width="6" height="6" rx="1"/>
    <rect x="36" y="32" width="6" height="6" rx="1"/><rect x="45" y="32" width="6" height="6" rx="1"/><rect x="54" y="32" width="6" height="6" rx="1"/>
    <rect x="36" y="42" width="6" height="6" rx="1"/><rect x="45" y="42" width="6" height="6" rx="1"/><rect x="54" y="42" width="6" height="6" rx="1"/>
    <rect x="36" y="52" width="6" height="6" rx="1"/><rect x="45" y="52" width="6" height="6" rx="1"/><rect x="54" y="52" width="6" height="6" rx="1"/>
  </g>
  <g fill="#9AD9C9"><rect x="26" y="46" width="8" height="6" rx="1"/><rect x="26" y="56" width="8" height="6" rx="1"/></g>
  <rect x="43" y="66" width="10" height="14" rx="2" fill="#5B463A"/>
  <path d="M34 18l28 0" stroke="#FFFFFF" stroke-width="2" stroke-linecap="round" opacity="0.3"/>
</svg>
