<svg xmlns="http://www.w3.org/2000/svg" viewBox="0 0 96 96">
  <ellipse cx="48" cy="84" rx="22" ry="5" fill="#3A2A1E" opacity="0.12"/>
  <path d="M48 22c-3 0-5 3-5 6s2 5 5 7" fill="none" stroke="#7FB069" stroke-width="3" stroke-linecap="round"/>
  <circle cx="46" cy="20" r="3" fill="#F2C14E"/>
  <path d="M48 34c-14 0-22 9-22 22 0 12 9 22 22 22s22-10 22-22c0-13-8-22-22-22Z" fill="#6fd6d0" stroke="#5B463A" stroke-width="2"/>
  <path d="M48 34c-14 0-22 9-22 22 0 12 9 22 22 22Z" fill="#8A6BD6" opacity="0.35"/>
  <circle cx="36" cy="50" r="4" fill="#F4A6C0"/>
  <circle cx="60" cy="46" r="3" fill="#F4A6C0"/>
  <circle cx="58" cy="62" r="3.4" fill="#F2C14E"/>
  <circle cx="42" cy="66" r="2.6" fill="#F2C14E"/>
  <circle cx="41" cy="56" r="2.6" fill="#5B463A"/>
  <circle cx="55" cy="55" r="2.6" fill="#5B463A"/>
  <path d="M43 64q5 4 10-1" fill="none" stroke="#5B463A" stroke-width="1.8" stroke-linecap="round"/>
  <circle cx="41" cy="55" r="0.9" fill="#FFF8E0"/>
</svg>
