<svg xmlns="http://www.w3.org/2000/svg" viewBox="0 0 96 96">
  <defs>
    <radialGradient id="g22" cx="50%" cy="50%" r="50%">
      <stop offset="0%" stop-color="#4b3b8f"/>
      <stop offset="60%" stop-color="#8A6BD6"/>
      <stop offset="100%" stop-color="#6fd6d0"/>
    </radialGradient>
  </defs>
  <ellipse cx="46" cy="84" rx="24" ry="5" fill="#3A2A1E" opacity="0.12"/>
  <path d="M24 40h44v18a22 22 0 0 1-44 0Z" fill="#FFF7EC" stroke="#5B463A" stroke-width="2" stroke-linejoin="round"/>
  <path d="M68 46a8 8 0 0 1 0 16" fill="none" stroke="#5B463A" stroke-width="2.4"/>
  <ellipse cx="46" cy="40" rx="22" ry="6" fill="#5B463A"/>
  <ellipse cx="46" cy="40" rx="18" ry="4.5" fill="url(#g22)"/>
  <path d="M46 40m-12 0a12 4.5 0 1 0 24 0" fill="none" stroke="#FFF8E0" stroke-width="1.4" opacity="0.5"/>
  <circle cx="46" cy="40" r="2" fill="#1f1733"/>
  <circle cx="38" cy="52" r="2" fill="#5B463A"/>
  <circle cx="54" cy="52" r="2" fill="#5B463A"/>
  <path d="M40 58q6 4 12 0" fill="none" stroke="#5B463A" stroke-width="1.8" stroke-linecap="round"/>
  <circle cx="58" cy="34" r="1.4" fill="#FFF8E0"/>
  <circle cx="34" cy="36" r="1.1" fill="#FFF8E0"/>
</svg>
