<svg xmlns="http://www.w3.org/2000/svg" viewBox="0 0 96 96">
  <defs>
    <linearGradient id="g23" x1="0" y1="0" x2="1" y2="1">
      <stop offset="0%" stop-color="#4b3b8f"/>
      <stop offset="55%" stop-color="#8A6BD6"/>
      <stop offset="100%" stop-color="#F4A6C0"/>
    </linearGradient>
  </defs>
  <ellipse cx="48" cy="84" rx="24" ry="5" fill="#3A2A1E" opacity="0.12"/>
  <path d="M24 70l24-44 24 44Z" fill="#FFF7EC" stroke="#5B463A" stroke-width="2" stroke-linejoin="round"/>
  <path d="M30 60l36 0 0 8a3 3 0 0 1-3 3H33a3 3 0 0 1-3-3Z" fill="#F4A6C0"/>
  <path d="M33 44l30 0-3-5H36Z M40 30l16 0-2-4H42Z" fill="url(#g23)"/>
  <path d="M24 70l24-44 24 44Z" fill="url(#g23)" opacity="0.35"/>
  <circle cx="42" cy="40" r="1.6" fill="#FFF8E0"/>
  <circle cx="55" cy="48" r="1.4" fill="#FFF8E0"/>
  <circle cx="48" cy="34" r="1.2" fill="#6fd6d0"/>
  <path d="M52 30l1 2.6 2.6 1-2.6 1-1 2.6-1-2.6-2.6-1 2.6-1Z" fill="#F4B740"/>
  <circle cx="43" cy="58" r="2" fill="#5B463A"/>
  <circle cx="53" cy="58" r="2" fill="#5B463A"/>
  <path d="M44 63q4 3 8 0" fill="none" stroke="#5B463A" stroke-width="1.6" stroke-linecap="round"/>
</svg>
