<svg xmlns="http://www.w3.org/2000/svg" viewBox="0 0 96 96">
  <defs>
    <linearGradient id="g27" x1="0" y1="0" x2="1" y2="0">
      <stop offset="0%" stop-color="#F4B740"/>
      <stop offset="50%" stop-color="#FFF8E0"/>
      <stop offset="100%" stop-color="#F2994A"/>
    </linearGradient>
  </defs>
  <ellipse cx="48" cy="84" rx="26" ry="5" fill="#3A2A1E" opacity="0.12"/>
  <circle cx="48" cy="48" r="28" fill="#F4B740" opacity="0.15"/>
  <path d="M34 36c-8 0-13 5-13 12s5 12 13 12c7 0 10-5 14-12 4-7 7-12 14-12 8 0 13 5 13 12s-5 12-13 12c-7 0-10-5-14-12-4-7-7-12-14-12Z" fill="url(#g27)" stroke="#5B463A" stroke-width="2" stroke-linejoin="round"/>
  <path d="M34 40c-5 0-9 3-9 8M62 56c5 0 9-3 9-8" fill="none" stroke="#FFF8E0" stroke-width="2" stroke-linecap="round" opacity="0.7"/>
  <circle cx="30" cy="44" r="1.8" fill="#5B463A"/>
  <circle cx="38" cy="44" r="1.8" fill="#5B463A"/>
  <path d="M30 50q4 3 8 0" fill="none" stroke="#5B463A" stroke-width="1.4" stroke-linecap="round"/>
  <circle cx="58" cy="52" r="1.8" fill="#5B463A"/>
  <circle cx="66" cy="52" r="1.8" fill="#5B463A"/>
  <path d="M58 46q4-3 8 0" fill="none" stroke="#5B463A" stroke-width="1.4" stroke-linecap="round"/>
  <circle cx="48" cy="26" r="1.6" fill="#6fd6d0"/>
  <circle cx="76" cy="68" r="1.4" fill="#FFF8E0"/>
</svg>
