<svg xmlns="http://www.w3.org/2000/svg" viewBox="0 0 96 96">
  <defs>
    <radialGradient id="g28" cx="50%" cy="35%" r="60%">
      <stop offset="0%" stop-color="#FFF8E0"/>
      <stop offset="100%" stop-color="#F4B740"/>
    </radialGradient>
  </defs>
  <ellipse cx="48" cy="84" rx="28" ry="5" fill="#3A2A1E" opacity="0.12"/>
  <ellipse cx="48" cy="40" rx="30" ry="30" fill="#F4B740" opacity="0.16"/>
  <ellipse cx="48" cy="34" rx="26" ry="6" fill="none" stroke="#F4B740" stroke-width="2.4" opacity="0.8"/>
  <path d="M22 60h52v4a3 3 0 0 1-3 3H25a3 3 0 0 1-3-3Z" fill="#F2994A" stroke="#5B463A" stroke-width="2" stroke-linejoin="round"/>
  <path d="M24 60a24 16 0 0 1 48 0Z" fill="url(#g28)" stroke="#5B463A" stroke-width="2" stroke-linejoin="round"/>
  <path d="M30 56a18 11 0 0 1 36 0" fill="none" stroke="#FFF8E0" stroke-width="2" stroke-linecap="round" opacity="0.6"/>
  <circle cx="48" cy="40" r="4" fill="#FFF8E0" stroke="#F4B740" stroke-width="1.6"/>
  <circle cx="42" cy="54" r="2" fill="#5B463A"/>
  <circle cx="54" cy="54" r="2" fill="#5B463A"/>
  <path d="M43 58q5 4 10 0" fill="none" stroke="#5B463A" stroke-width="1.8" stroke-linecap="round"/>
  <path d="M48 26l1.2 3 3 1.2-3 1.2-1.2 3-1.2-3-3-1.2 3-1.2Z" fill="#FFF8E0"/>
</svg>
