<svg xmlns="http://www.w3.org/2000/svg" viewBox="0 0 96 96">
  <ellipse cx="48" cy="83" rx="28" ry="5" fill="#3A2A1E" opacity="0.12"/>
  <g stroke="#5B463A" stroke-width="1.6">
    <ellipse cx="33" cy="40" rx="7" ry="6" fill="#F4A6C0"/>
    <path d="M22 56c0-9 5-13 11-13s11 4 11 13c0 5-4 7-11 7s-11-2-11-7Z" fill="#F4A6C0"/>
    <circle cx="24" cy="35" r="3.5" fill="#F4A6C0"/>
    <circle cx="42" cy="35" r="3.5" fill="#F4A6C0"/>
    <circle cx="24" cy="61" r="4" fill="#F4A6C0"/>
    <circle cx="42" cy="61" r="4" fill="#F4A6C0"/>
  </g>
  <circle cx="30" cy="40" r="1.7" fill="#5B463A"/>
  <circle cx="36" cy="40" r="1.7" fill="#5B463A"/>
  <ellipse cx="33" cy="49" rx="5" ry="4" fill="#FFF3E2" opacity="0.6"/>
  <g stroke="#5B463A" stroke-width="1.6">
    <ellipse cx="63" cy="44" rx="7" ry="6" fill="#7FB069"/>
    <path d="M52 60c0-9 5-13 11-13s11 4 11 13c0 5-4 7-11 7s-11-2-11-7Z" fill="#7FB069"/>
    <circle cx="54" cy="39" r="3.5" fill="#7FB069"/>
    <circle cx="72" cy="39" r="3.5" fill="#7FB069"/>
    <circle cx="54" cy="65" r="4" fill="#7FB069"/>
    <circle cx="72" cy="65" r="4" fill="#7FB069"/>
  </g>
  <circle cx="60" cy="44" r="1.7" fill="#3A2A1E"/>
  <circle cx="66" cy="44" r="1.7" fill="#3A2A1E"/>
  <ellipse cx="63" cy="53" rx="5" ry="4" fill="#FFF3E2" opacity="0.5"/>
</svg>
