<svg xmlns="http://www.w3.org/2000/svg" viewBox="0 0 96 96">
  <ellipse cx="48" cy="82" rx="27" ry="5" fill="#3A2A1E" opacity="0.12"/>
  <path d="M22 28h44a4 4 0 0 1 4 4v34a4 4 0 0 1-4 4H22a4 4 0 0 1-4-4V32a4 4 0 0 1 4-4Z" fill="#7A4E2D" stroke="#5B463A" stroke-width="2"/>
  <g fill="#8C5A34" stroke="#5B463A" stroke-width="1.4">
    <rect x="23" y="33" width="14" height="14" rx="2"/>
    <rect x="39" y="33" width="14" height="14" rx="2"/>
    <rect x="55" y="33" width="10" height="14" rx="2"/>
    <rect x="23" y="49" width="14" height="14" rx="2"/>
    <rect x="39" y="49" width="14" height="14" rx="2"/>
    <rect x="55" y="49" width="10" height="14" rx="2"/>
  </g>
  <g fill="#FFF3E2" opacity="0.45"><rect x="25" y="35" width="5" height="5" rx="1.5"/><rect x="41" y="35" width="5" height="5" rx="1.5"/><rect x="25" y="51" width="5" height="5" rx="1.5"/></g>
  <path d="M70 30 80 22 78 34 84 40 72 42 66 50 70 38 Z" fill="#8C5A34" stroke="#5B463A" stroke-width="1.8" stroke-linejoin="round"/>
  <rect x="71" y="29" width="4.5" height="4.5" rx="1.5" fill="#FFF3E2" opacity="0.5"/>
</svg>
