<svg xmlns="http://www.w3.org/2000/svg" viewBox="0 0 96 96">
  <ellipse cx="48" cy="83" rx="27" ry="5" fill="#3A2A1E" opacity="0.12"/>
  <path d="M48 16 78 70a4 4 0 0 1-3.5 6h-53A4 4 0 0 1 18 70Z" fill="#FFF7EC" stroke="#5B463A" stroke-width="2" stroke-linejoin="round"/>
  <path d="M27 60h42a4 4 0 0 1 4 4v8a4 4 0 0 1-4 4H27a4 4 0 0 1-4-4v-8a4 4 0 0 1 4-4Z" fill="#3A2A1E"/>
  <path d="M27 60h42a4 4 0 0 1 4 4v2H23v-2a4 4 0 0 1 4-4Z" fill="#5B463A"/>
  <ellipse cx="48" cy="40" rx="9" ry="8" fill="#E2574C" stroke="#5B463A" stroke-width="1.6"/>
  <ellipse cx="48" cy="38" rx="5" ry="3.5" fill="#FFF3E2" opacity="0.5"/>
  <g fill="#FFF3E2" opacity="0.7"><circle cx="40" cy="55" r="1.4"/><circle cx="56" cy="54" r="1.4"/><circle cx="48" cy="52" r="1.4"/></g>
</svg>
