<svg xmlns="http://www.w3.org/2000/svg" viewBox="0 0 96 96">
  <ellipse cx="48" cy="84" rx="27" ry="5" fill="#3A2A1E" opacity="0.12"/>
  <path d="M37 8c4-3 18-3 22 0" fill="none" stroke="#B7C2CC" stroke-width="2" stroke-linecap="round" opacity="0.7"/>
  <path d="M40 22q-4-6 0-12M48 22q-4-7 0-14M56 22q-4-6 0-12" fill="none" stroke="#B7C2CC" stroke-width="2" stroke-linecap="round" opacity="0.7"/>
  <path d="M26 36h44l-5 38a4 4 0 0 1-4 3.5H35a4 4 0 0 1-4-3.5Z" fill="#E2574C" stroke="#5B463A" stroke-width="2" stroke-linejoin="round"/>
  <path d="M24 30h48a3 3 0 0 1 3 3v2a3 3 0 0 1-3 3H24a3 3 0 0 1-3-3v-2a3 3 0 0 1 3-3Z" fill="#FFF7EC" stroke="#5B463A" stroke-width="2"/>
  <ellipse cx="48" cy="36" rx="22" ry="5" fill="#F2C14E"/>
  <path d="M30 35q6-4 12-1t12-1 12 0" fill="none" stroke="#E07B39" stroke-width="2.2" stroke-linecap="round"/>
  <path d="M33 37q7 3 15 0t15 0" fill="none" stroke="#FFF3E2" stroke-width="2" stroke-linecap="round" opacity="0.8"/>
  <rect x="30" y="52" width="36" height="4" rx="2" fill="#FFF3E2" opacity="0.7"/>
  <path d="M76 26 84 22" stroke="#B7C2CC" stroke-width="3" stroke-linecap="round"/>
</svg>
