<svg xmlns="http://www.w3.org/2000/svg" viewBox="0 0 96 96">
  <ellipse cx="48" cy="84" rx="28" ry="5" fill="#3A2A1E" opacity="0.12"/>
  <path d="M16 54h64c0 14-13 24-32 24S16 68 16 54Z" fill="#FFF7EC" stroke="#5B463A" stroke-width="2" stroke-linejoin="round"/>
  <ellipse cx="48" cy="54" rx="32" ry="9" fill="#FFF3E2" stroke="#5B463A" stroke-width="2"/>
  <g stroke="#5B463A" stroke-width="1.8">
    <path d="M24 50c-1-9 7-14 13-11 3-6 13-6 16 1 6-2 11 3 9 9-3 6-35 6-38 1Z" fill="#E2574C"/>
    <path d="M50 52c0-8 8-12 13-9 3-5 12-4 13 3 5 0 7 6 2 9-4 3-26 2-28-3Z" fill="#E07B39"/>
    <ellipse cx="36" cy="56" rx="13" ry="7" fill="#E2574C"/>
  </g>
  <path d="M26 46q8-3 14 0" fill="none" stroke="#FFF3E2" stroke-width="2" stroke-linecap="round" opacity="0.6"/>
  <g fill="#FFF3E2"><circle cx="32" cy="48" r="1.5"/><circle cx="42" cy="44" r="1.5"/><circle cx="52" cy="48" r="1.5"/><circle cx="38" cy="54" r="1.5"/><circle cx="62" cy="48" r="1.5"/><circle cx="48" cy="42" r="1.5"/></g>
</svg>
