<svg xmlns="http://www.w3.org/2000/svg" viewBox="0 0 96 96">
  <defs>
    <linearGradient id="cola13" x1="0" y1="0" x2="0" y2="1">
      <stop offset="0" stop-color="#5B3A22"/>
      <stop offset="1" stop-color="#3a2418"/>
    </linearGradient>
  </defs>
  <ellipse cx="48" cy="84" rx="22" ry="5" fill="#3A2A1E" opacity="0.12"/>
  <path d="M28 28h40l-5 46a5 5 0 0 1-5 4.5H38a5 5 0 0 1-5-4.5Z" fill="#FFF7EC" stroke="#5B463A" stroke-width="2" stroke-linejoin="round"/>
  <path d="M30 36h36l-4 38a5 5 0 0 1-5 4.5H39a5 5 0 0 1-5-4.5Z" fill="url(#cola13)"/>
  <ellipse cx="48" cy="36" rx="18" ry="4" fill="#5B3A22"/>
  <g fill="#6FA8DC" opacity="0.85" stroke="#FFF3E2" stroke-width="1"><rect x="36" y="40" width="8" height="7" rx="2" transform="rotate(-12 40 43)"/><rect x="50" y="42" width="8" height="7" rx="2" transform="rotate(10 54 45)"/><rect x="42" y="50" width="8" height="7" rx="2" transform="rotate(6 46 53)"/></g>
  <rect x="56" y="14" width="5" height="40" rx="2.5" fill="#F4A6C0" stroke="#5B463A" stroke-width="1.2" transform="rotate(12 58 34)"/>
  <g fill="#FFF3E2" opacity="0.7"><circle cx="40" cy="62" r="1.6"/><circle cx="52" cy="66" r="1.6"/><circle cx="46" cy="58" r="1.3"/><circle cx="56" cy="60" r="1.3"/></g>
</svg>
