<svg xmlns="http://www.w3.org/2000/svg" viewBox="0 0 96 96">
  <defs>
    <linearGradient id="wine" x1="0" y1="0" x2="0" y2="1">
      <stop offset="0" stop-color="#7A1F3D"/>
      <stop offset="1" stop-color="#E2574C"/>
    </linearGradient>
  </defs>
  <ellipse cx="48" cy="82" rx="20" ry="5" fill="#3A2A1E" opacity="0.12"/>
  <path d="M34 14 h28 q2 18-6 26 q-2 4-2 9 v23 h-12 v-23 q0-5-2-9 q-8-8-6-26z" fill="#FFF7EC" opacity="0.85"/>
  <path d="M35 16 h26 q1 14-6 22 h-14 q-7-8-6-22z" fill="url(#wine)"/>
  <path d="M37 22 h22 q0 9-5 15 h-12 q-5-6-5-15z" fill="#7A1F3D"/>
  <ellipse cx="44" cy="20" rx="3" ry="1.4" fill="#FFFFFF" opacity="0.25"/>
  <rect x="44" y="72" width="8" height="8" rx="1.5" fill="#FFF3E2"/>
  <rect x="36" y="80" width="24" height="5" rx="2.5" fill="#FFF7EC"/>
  <ellipse cx="48" cy="80" rx="12" ry="2.4" fill="#5B463A" opacity="0.15"/>
</svg>
