<svg xmlns="http://www.w3.org/2000/svg" viewBox="0 0 96 96">
  <ellipse cx="48" cy="80" rx="31" ry="6" fill="#3A2A1E" opacity="0.12"/>
  <ellipse cx="48" cy="58" rx="38" ry="14" fill="#FFF7EC"/>
  <ellipse cx="48" cy="57" rx="31" ry="11" fill="#FFF3E2"/>
  <path d="M30 50 q8-8 20-7 q12 1 18 8 q-3 9-18 10 q-15-1-20-11z" fill="#E2574C"/>
  <path d="M30 44 q8-8 20-7 q12 1 18 8 q-3 8-18 9 q-15-1-20-10z" fill="#E07B39"/>
  <path d="M32 42 q9-7 19-6 q11 1 16 7 q-4 7-16 8 q-13-1-19-9z" fill="#F4A6C0"/>
  <path d="M40 36 q4 7 0 12" stroke="#FFF3E2" stroke-width="1.6" fill="none" opacity="0.8"/>
  <path d="M50 35 q3 8-1 13" stroke="#FFF3E2" stroke-width="1.6" fill="none" opacity="0.8"/>
  <path d="M58 38 q2 6-2 10" stroke="#FFF3E2" stroke-width="1.6" fill="none" opacity="0.8"/>
  <path d="M47 44 q5 1 9 4" stroke="#FFF3E2" stroke-width="1.4" fill="none" opacity="0.7"/>
</svg>
