<svg xmlns="http://www.w3.org/2000/svg" viewBox="0 0 96 96">
  <ellipse cx="46" cy="84" rx="18" ry="5" fill="#3A2A1E" opacity="0.12"/>
  <path d="M62 12 l-2 26 l-3 4 v34 h-4 v-34 l-3-4z" fill="#B7C2CC" opacity="0.7"/>
  <path d="M33 30 h26 l-3 44 a4 4 0 0 1-4 4 h-12 a4 4 0 0 1-4-4z" fill="#FFF7EC" opacity="0.55"/>
  <path d="M34 32 h24 l-1 14 h-22z" fill="#F4A6C0"/>
  <path d="M35 46 h22 l-1 12 h-20z" fill="#FFF3E2"/>
  <path d="M36 58 h20 l-1.4 14 a3 3 0 0 1-3 3 h-11.2 a3 3 0 0 1-3-3z" fill="#7A4E2D"/>
  <path d="M36 30 q4-7 12-7 q8 0 12 7 q-4 6-12 6 q-8 0-12-6z" fill="#FFF3E2"/>
  <circle cx="42" cy="27" r="3.2" fill="#FFF3E2"/>
  <circle cx="50" cy="25" r="3.6" fill="#FFF3E2"/>
  <circle cx="48" cy="40" r="2.6" fill="#E2574C"/>
  <circle cx="42" cy="42" r="2" fill="#C06CC9"/>
  <circle cx="54" cy="41" r="2" fill="#F2C14E"/>
</svg>
