<svg xmlns="http://www.w3.org/2000/svg" viewBox="0 0 96 96">
  <ellipse cx="42" cy="84" rx="22" ry="5" fill="#3A2A1E" opacity="0.12"/>
  <path d="M36 30 q0-6 4-9 v-7 h6 v7 q4 3 4 9 v44 a4 4 0 0 1-4 4 h-6 a4 4 0 0 1-4-4z" fill="#7FB069"/>
  <path d="M36 40 h14 v34 a4 4 0 0 1-4 4 h-6 a4 4 0 0 1-4-4z" fill="#7A4E2D" opacity="0.55"/>
  <rect x="37" y="46" width="12" height="16" rx="2" fill="#FFF3E2"/>
  <rect x="39" y="11" width="8" height="5" rx="1" fill="#F4B740"/>
  <circle cx="58" cy="20" r="5" fill="#F4B740"/>
  <path d="M54 24 l-4 6" stroke="#F4B740" stroke-width="2" stroke-linecap="round"/>
  <path d="M62 16 l4-3 M64 22 l5 0 M60 13 l1-5 M56 14 l-3-4" stroke="#FFF3E2" stroke-width="1.6" stroke-linecap="round" opacity="0.9"/>
  <path d="M66 50 q0-5 4-7 v-5 h4 v5 q4 2 4 7 v22 a3 3 0 0 1-3 3 h-6 a3 3 0 0 1-3-3z" fill="#FFF7EC" opacity="0.85"/>
  <path d="M67 51 h12 v8 q0 4-6 5 q-6-1-6-5z" fill="#F2C14E"/>
  <circle cx="71" cy="55" r="0.9" fill="#FFF3E2"/>
  <circle cx="75" cy="57" r="0.9" fill="#FFF3E2"/>
</svg>
