<svg xmlns="http://www.w3.org/2000/svg" viewBox="0 0 96 96">
  <ellipse cx="48" cy="82" rx="26" ry="6" fill="#3A2A1E" opacity="0.12"/>
  <rect x="24" y="20" width="48" height="60" rx="5" fill="#6FA8DC"/>
  <rect x="24" y="20" width="48" height="60" rx="5" fill="#FFFFFF" opacity="0.12"/>
  <rect x="29" y="26" width="38" height="30" rx="3" fill="#FFF7EC"/>
  <rect x="29" y="26" width="38" height="30" rx="3" fill="#9AD9C9" opacity="0.35"/>
  <circle cx="42" cy="38" r="6" fill="#E2574C"/>
  <rect x="50" y="34" width="12" height="3" rx="1.5" fill="#7FB069"/>
  <rect x="50" y="40" width="10" height="3" rx="1.5" fill="#F2C14E"/>
  <rect x="33" y="48" width="30" height="4" rx="2" fill="#B7C2CC"/>
  <rect x="30" y="62" width="36" height="12" rx="2" fill="#FFF3E2" opacity="0.85"/>
  <g fill="#FFFFFF">
    <path d="M40 64 v6 M37 65.5 l6 3 M37 68.5 l6-3" stroke="#6FA8DC" stroke-width="1.4" stroke-linecap="round"/>
    <path d="M55 64 v6 M52 65.5 l6 3 M52 68.5 l6-3" stroke="#6FA8DC" stroke-width="1.4" stroke-linecap="round"/>
  </g>
  <circle cx="64" cy="24" r="2" fill="#FFFFFF" opacity="0.8"/>
  <circle cx="28" cy="58" r="1.6" fill="#FFFFFF" opacity="0.7"/>
</svg>
