<svg xmlns="http://www.w3.org/2000/svg" viewBox="0 0 96 96">
  <ellipse cx="48" cy="83" rx="22" ry="5" fill="#3A2A1E" opacity="0.12"/>
  <path d="M30 16 h36 l-3 6 v52 a4 4 0 0 1-4 4 h-22 a4 4 0 0 1-4-4 v-52z" fill="#F2C14E"/>
  <path d="M30 16 h36 l-3 6 v52 a4 4 0 0 1-4 4 h-22 a4 4 0 0 1-4-4 v-52z" fill="#FFFFFF" opacity="0.1"/>
  <path d="M30 16 h36 l-3 6 h-30z" fill="#FFF3E2" opacity="0.6"/>
  <path d="M33 22 h30 v52 a4 4 0 0 1-4 4 h-22 a4 4 0 0 1-4-4z" fill="#F4B740" opacity="0.0"/>
  <rect x="35" y="34" width="26" height="22" rx="3" fill="#FFF7EC"/>
  <circle cx="44" cy="44" r="4.5" fill="#E07B39"/>
  <circle cx="44" cy="44" r="2.4" fill="#F2994A"/>
  <circle cx="53" cy="41" r="3.6" fill="#F2994A"/>
  <circle cx="50" cy="50" r="3.2" fill="#E07B39"/>
  <path d="M33 22 q15 4 30 0" stroke="#E07B39" stroke-width="1.4" fill="none" opacity="0.5"/>
  <ellipse cx="40" cy="30" rx="3" ry="1.4" fill="#FFFFFF" opacity="0.35"/>
</svg>
