<svg xmlns="http://www.w3.org/2000/svg" viewBox="0 0 96 96">
  <ellipse cx="48" cy="83" rx="16" ry="4.5" fill="#3A2A1E" opacity="0.12"/>
  <rect x="44" y="10" width="8" height="6" rx="1.5" fill="#E07B39"/>
  <path d="M43 16 h10 v6 q4 2 4 8 v40 a5 5 0 0 1-5 5 h-8 a5 5 0 0 1-5-5 v-40 q0-6 4-8z" fill="#6FA8DC" opacity="0.85"/>
  <path d="M39 34 q5 3 9 3 q4 0 9-3 v40 a5 5 0 0 1-5 5 h-8 a5 5 0 0 1-5-5z" fill="#E2574C"/>
  <rect x="39" y="44" width="18" height="18" rx="2" fill="#FFF7EC"/>
  <path d="M42 53 q6-5 12 0" stroke="#E2574C" stroke-width="2" fill="none" stroke-linecap="round"/>
  <circle cx="48" cy="49" r="2.2" fill="#F2C14E"/>
  <circle cx="44" cy="40" r="1.3" fill="#FFFFFF" opacity="0.8"/>
  <circle cx="51" cy="68" r="1.3" fill="#FFFFFF" opacity="0.7"/>
  <circle cx="45" cy="72" r="1" fill="#FFFFFF" opacity="0.7"/>
  <ellipse cx="44" cy="26" rx="2" ry="4" fill="#FFFFFF" opacity="0.3"/>
</svg>
