<svg xmlns="http://www.w3.org/2000/svg" viewBox="0 0 96 96">
  <ellipse cx="48" cy="82" rx="34" ry="5" fill="#3A2A1E" opacity="0.12"/>
  <rect x="12" y="58" width="72" height="14" rx="7" fill="#B7C2CC"/>
  <rect x="12" y="58" width="72" height="7" rx="3.5" fill="#FFF7EC" opacity="0.5"/>
  <circle cx="22" cy="65" r="5" fill="#5B463A"/>
  <circle cx="22" cy="65" r="2" fill="#B7C2CC"/>
  <circle cx="48" cy="65" r="5" fill="#5B463A"/>
  <circle cx="48" cy="65" r="2" fill="#B7C2CC"/>
  <circle cx="74" cy="65" r="5" fill="#5B463A"/>
  <circle cx="74" cy="65" r="2" fill="#B7C2CC"/>
  <rect x="26" y="36" width="22" height="22" rx="2" fill="#E07B39"/>
  <rect x="26" y="36" width="22" height="8" rx="2" fill="#F2994A"/>
  <path d="M37 36 v22 M26 44 h22" stroke="#5B463A" stroke-width="1.2" opacity="0.5"/>
  <rect x="52" y="42" width="18" height="16" rx="2" fill="#F2C14E"/>
  <rect x="52" y="42" width="18" height="6" rx="2" fill="#F6C453"/>
  <path d="M61 42 v16 M52 48 h18" stroke="#5B463A" stroke-width="1.1" opacity="0.45"/>
</svg>
