<svg xmlns="http://www.w3.org/2000/svg" viewBox="0 0 96 96">
  <ellipse cx="48" cy="82" rx="28" ry="6" fill="#3A2A1E" opacity="0.12"/>
  <rect x="20" y="70" width="40" height="10" rx="3" fill="#B7C2CC"/>
  <rect x="34" y="40" width="12" height="34" rx="4" fill="#F2994A"/>
  <rect x="38" y="40" width="4" height="34" fill="#E07B39"/>
  <circle cx="40" cy="40" r="7" fill="#B7C2CC"/>
  <circle cx="40" cy="40" r="3" fill="#5B463A"/>
  <path d="M44 38 l22 6 q4 1 4 5 v3" fill="none" stroke="#F2994A" stroke-width="8" stroke-linecap="round"/>
  <path d="M44 37 l22 6" stroke="#E07B39" stroke-width="3" stroke-linecap="round"/>
  <rect x="58" y="48" width="26" height="24" rx="3" fill="#F2C14E"/>
  <rect x="58" y="48" width="26" height="9" rx="3" fill="#F6C453"/>
  <path d="M71 48 v24 M58 57 h26" stroke="#5B463A" stroke-width="1.2" opacity="0.45"/>
  <circle cx="66" cy="36" r="9" fill="#FFF7EC"/>
  <circle cx="66" cy="36" r="9" fill="#9AD9C9" opacity="0.25"/>
  <circle cx="62" cy="35" r="1.6" fill="#3A2A1E"/>
  <circle cx="70" cy="35" r="1.6" fill="#3A2A1E"/>
  <path d="M62 39 q4 3 8 0" stroke="#5B463A" stroke-width="1.4" fill="none" stroke-linecap="round"/>
  <circle cx="66" cy="25" r="2" fill="#F4B740"/>
  <path d="M66 27 v3" stroke="#B7C2CC" stroke-width="1.5"/>
</svg>
