<svg xmlns="http://www.w3.org/2000/svg" viewBox="0 0 96 96">
  <ellipse cx="48" cy="84" rx="28" ry="5" fill="#3A2A1E" opacity="0.12"/>
  <!-- awning -->
  <path d="M22 20 H74 V30 L48 34 L22 30 Z" fill="#FBEFD9" stroke="#5B463A" stroke-width="1.5" stroke-linejoin="round"/>
  <path d="M30 21 L26 31 M40 21 L37 32 M50 21 L48 33 M60 21 L59 32 M70 21 L70 31" stroke="#E2574C" stroke-width="3"/>
  <!-- fish pastry body -->
  <path d="M30 44 C30 36 40 32 50 33 C64 34 74 42 80 52 C74 62 64 70 50 71 C40 72 30 68 30 60 C26 60 22 56 22 52 C22 48 26 44 30 44 Z" fill="#F2C14E" stroke="#5B463A" stroke-width="1.5" stroke-linejoin="round"/>
  <!-- tail -->
  <path d="M30 47 L20 40 L24 52 L20 64 L30 57 Z" fill="#F6C453" stroke="#5B463A" stroke-width="1.5" stroke-linejoin="round"/>
  <!-- fin detail -->
  <path d="M44 40 C48 44 50 50 48 58" fill="none" stroke="#E07B39" stroke-width="2" stroke-linecap="round"/>
  <path d="M56 42 C60 46 62 52 60 60" fill="none" stroke="#E07B39" stroke-width="2" stroke-linecap="round"/>
  <!-- eye -->
  <circle cx="36" cy="48" r="3" fill="#5B463A"/>
  <circle cx="37" cy="47" r="1" fill="#FFF3E2"/>
</svg>
