<svg xmlns="http://www.w3.org/2000/svg" viewBox="0 0 96 96">
  <ellipse cx="48" cy="84" rx="26" ry="5" fill="#3A2A1E" opacity="0.12"/>
  <!-- globe -->
  <circle cx="48" cy="44" r="28" fill="#6FA8DC" stroke="#5B463A" stroke-width="1.6"/>
  <!-- continents -->
  <path d="M30 32 C36 28 44 30 46 36 C48 42 42 46 36 44 C30 42 26 38 30 32 Z" fill="#7FB069"/>
  <path d="M52 30 C60 30 66 36 62 42 C58 46 54 42 52 38 C50 34 50 30 52 30 Z" fill="#7FB069"/>
  <path d="M40 52 C48 50 58 54 58 60 C54 64 44 64 40 60 C36 56 36 53 40 52 Z" fill="#7FB069"/>
  <!-- latitude lines -->
  <g fill="none" stroke="#FFF3E2" stroke-width="1.2" opacity="0.65">
    <path d="M22 38 H74"/><path d="M22 50 H74"/>
    <ellipse cx="48" cy="44" rx="14" ry="28"/>
  </g>
  <!-- crossed fork & spoon -->
  <g stroke="#5B463A" stroke-width="1.4">
    <rect x="38.5" y="40" width="3" height="40" rx="1.5" fill="#FFF7EC" transform="rotate(18 40 60)"/>
    <rect x="54.5" y="40" width="3" height="40" rx="1.5" fill="#FFF7EC" transform="rotate(-18 56 60)"/>
    <ellipse cx="36" cy="42" rx="4" ry="6" fill="#FFF7EC" transform="rotate(18 36 42)"/>
    <path d="M58 36 V46 M61 36 V46 M64 36 V46" stroke="#5B463A" stroke-width="1.8" stroke-linecap="round" transform="rotate(-18 61 42)"/>
  </g>
</svg>
