<svg xmlns="http://www.w3.org/2000/svg" viewBox="0 0 96 96">
  <ellipse cx="48" cy="85" rx="22" ry="4.5" fill="#3A2A1E" opacity="0.12"/>
  <!-- planet ring (behind) -->
  <ellipse cx="48" cy="50" rx="38" ry="12" fill="none" stroke="#F2C14E" stroke-width="4" opacity="0.9" transform="rotate(-18 48 50)"/>
  <!-- rocket body -->
  <path d="M48 8 C58 18 62 34 60 52 H36 C34 34 38 18 48 8 Z" fill="#FFF3E2" stroke="#5B463A" stroke-width="1.6" stroke-linejoin="round"/>
  <!-- nose -->
  <path d="M48 8 C53 13 56 20 57 26 H39 C40 20 43 13 48 8 Z" fill="#E2574C" stroke="#5B463A" stroke-width="1.5" stroke-linejoin="round"/>
  <!-- window -->
  <circle cx="48" cy="34" r="6.5" fill="#6FA8DC" stroke="#5B463A" stroke-width="1.5"/>
  <circle cx="46" cy="32" r="2" fill="#FFF7EC" opacity="0.8"/>
  <!-- fins -->
  <path d="M36 44 L26 56 L37 52 Z" fill="#F2994A" stroke="#5B463A" stroke-width="1.4" stroke-linejoin="round"/>
  <path d="M60 44 L70 56 L59 52 Z" fill="#F2994A" stroke="#5B463A" stroke-width="1.4" stroke-linejoin="round"/>
  <!-- ring (front) -->
  <path d="M16 54 A38 12 -18 0 0 44 60" fill="none" stroke="#E07B39" stroke-width="4" stroke-linecap="round"/>
  <!-- flame -->
  <path d="M42 52 C44 62 46 66 48 70 C50 66 52 62 54 52 Z" fill="#F2994A" stroke="#5B463A" stroke-width="1.3" stroke-linejoin="round"/>
  <path d="M45 54 C46 60 47 63 48 66 C49 63 50 60 51 54 Z" fill="#F2C14E"/>
</svg>
