<svg xmlns="http://www.w3.org/2000/svg" viewBox="0 0 96 96">
  <ellipse cx="48" cy="84" rx="28" ry="5" fill="#3A2A1E" opacity="0.12"/>
  <!-- red food box -->
  <path d="M30 60 H82 L78 80 H34 Z" fill="#E2574C" stroke="#5B463A" stroke-width="1.5" stroke-linejoin="round"/>
  <path d="M30 60 H82 V64 H30 Z" fill="#E07B39"/>
  <rect x="50" y="68" width="12" height="8" rx="2" fill="#FFF3E2" opacity="0.8"/>
  <!-- drumstick meat -->
  <path d="M28 22 C40 16 56 20 60 34 C63 44 56 54 44 56 C34 57 24 50 22 40 C21 32 22 26 28 22 Z" fill="#E07B39" stroke="#5B463A" stroke-width="1.5" stroke-linejoin="round"/>
  <path d="M30 26 C38 22 50 25 53 35" fill="none" stroke="#F2C14E" stroke-width="3" stroke-linecap="round"/>
  <!-- crispy texture dots -->
  <g fill="#5B463A" opacity="0.5">
    <circle cx="34" cy="34" r="1.3"/><circle cx="42" cy="30" r="1.3"/>
    <circle cx="46" cy="40" r="1.3"/><circle cx="36" cy="44" r="1.3"/>
    <circle cx="50" cy="34" r="1.3"/>
  </g>
  <!-- bone -->
  <path d="M40 52 L30 66" stroke="#FFF3E2" stroke-width="7" stroke-linecap="round"/>
  <path d="M40 52 L30 66" stroke="#5B463A" stroke-width="1.3" fill="none"/>
  <circle cx="28" cy="68" r="4" fill="#FFF3E2" stroke="#5B463A" stroke-width="1.3"/>
  <circle cx="33" cy="64" r="3.5" fill="#FFF3E2" stroke="#5B463A" stroke-width="1.3"/>
</svg>
