<svg xmlns="http://www.w3.org/2000/svg" viewBox="0 0 96 96">
  <ellipse cx="48" cy="84" rx="26" ry="5" fill="#3A2A1E" opacity="0.12"/>
  <!-- wrapper -->
  <path d="M30 50 H66 L60 78 H36 Z" fill="#F2C14E" stroke="#5B463A" stroke-width="1.5" stroke-linejoin="round"/>
  <g stroke="#E07B39" stroke-width="2.2">
    <path d="M38 52 L36 78 M48 52 L48 78 M58 52 L60 78"/>
  </g>
  <!-- frosting -->
  <path d="M28 50 C28 38 36 32 48 32 C60 32 68 38 68 50 C62 50 64 44 58 44 C56 38 50 40 50 46 C48 38 42 40 42 46 C40 40 34 42 36 48 C32 46 30 50 28 50 Z" fill="#F4A6C0" stroke="#5B463A" stroke-width="1.5" stroke-linejoin="round"/>
  <path d="M34 46 C36 42 42 42 44 46" fill="none" stroke="#FFF3E2" stroke-width="2" stroke-linecap="round" opacity="0.7"/>
  <!-- cherry -->
  <circle cx="48" cy="24" r="6" fill="#E2574C" stroke="#5B463A" stroke-width="1.5"/>
  <circle cx="46" cy="22" r="1.6" fill="#FFF7EC" opacity="0.8"/>
  <path d="M48 18 C50 12 54 12 56 14" fill="none" stroke="#7A4E2D" stroke-width="2" stroke-linecap="round"/>
</svg>
