<svg xmlns="http://www.w3.org/2000/svg" viewBox="0 0 96 96">
  <ellipse cx="48" cy="84" rx="28" ry="5" fill="#3A2A1E" opacity="0.12"/>
  <!-- top bun -->
  <path d="M20 40 C20 26 32 18 48 18 C64 18 76 26 76 40 Z" fill="#F2C14E" stroke="#5B463A" stroke-width="1.5" stroke-linejoin="round"/>
  <g fill="#FFF3E2" opacity="0.8">
    <circle cx="40" cy="30" r="1.6"/><circle cx="52" cy="28" r="1.6"/>
    <circle cx="46" cy="34" r="1.6"/><circle cx="58" cy="33" r="1.6"/><circle cx="34" cy="35" r="1.6"/>
  </g>
  <!-- lettuce -->
  <path d="M18 41 C24 37 28 45 34 41 C40 37 44 45 50 41 C56 37 60 45 66 41 C72 38 76 42 78 42 C78 47 74 49 48 49 C22 49 18 47 18 42 Z" fill="#7FB069" stroke="#5B463A" stroke-width="1.3" stroke-linejoin="round"/>
  <!-- tomato -->
  <rect x="20" y="47" width="56" height="6" rx="3" fill="#E2574C" stroke="#5B463A" stroke-width="1.2"/>
  <!-- cheese -->
  <path d="M22 52 H74 L66 60 H30 Z" fill="#F6C453" stroke="#5B463A" stroke-width="1.2" stroke-linejoin="round"/>
  <!-- patty -->
  <rect x="20" y="56" width="56" height="9" rx="4.5" fill="#7A4E2D" stroke="#5B463A" stroke-width="1.3"/>
  <!-- bottom bun -->
  <path d="M22 64 H74 C74 72 66 76 48 76 C30 76 22 72 22 64 Z" fill="#E07B39" stroke="#5B463A" stroke-width="1.5" stroke-linejoin="round"/>
</svg>
