<svg xmlns="http://www.w3.org/2000/svg" viewBox="0 0 96 96">
  <ellipse cx="48" cy="84" rx="30" ry="5" fill="#3A2A1E" opacity="0.12"/>
  <!-- fork -->
  <g stroke="#5B463A" stroke-width="1.3" fill="#FBEFD9">
    <path d="M14 22 V32 M18 22 V32 M22 22 V32" stroke="#5B463A" stroke-width="2" stroke-linecap="round"/>
    <path d="M13 32 H23 V36 C23 40 20 42 18 42 C16 42 13 40 13 36 Z"/>
    <rect x="16.5" y="42" width="3" height="32" rx="1.5" fill="#FBEFD9"/>
  </g>
  <!-- knife -->
  <g stroke="#5B463A" stroke-width="1.3">
    <path d="M78 22 C82 26 82 36 79 44 L76 44 L76 22 Z" fill="#FBEFD9"/>
    <rect x="76.5" y="44" width="3" height="30" rx="1.5" fill="#FBEFD9"/>
  </g>
  <!-- plate -->
  <ellipse cx="48" cy="60" rx="32" ry="14" fill="#FFF3E2" stroke="#5B463A" stroke-width="1.5"/>
  <ellipse cx="48" cy="58" rx="23" ry="9.5" fill="#FBEFD9" stroke="#5B463A" stroke-width="1"/>
  <!-- pasta swirl -->
  <g fill="none" stroke="#F2C14E" stroke-width="3.4" stroke-linecap="round">
    <path d="M38 58 C38 50 58 50 58 58 C58 64 42 64 42 58 C42 54 54 54 54 58"/>
    <path d="M40 61 C44 65 54 65 57 60"/>
  </g>
  <!-- tomato bits -->
  <circle cx="44" cy="55" r="2.4" fill="#E2574C"/>
  <circle cx="53" cy="60" r="2.4" fill="#E2574C"/>
  <circle cx="48" cy="62" r="1.6" fill="#7FB069"/>
</svg>
