<svg xmlns="http://www.w3.org/2000/svg" viewBox="0 0 96 96">
  <ellipse cx="48" cy="84" rx="30" ry="5" fill="#3A2A1E" opacity="0.12"/>
  <!-- gold star -->
  <path d="M48 12 L51.5 20 L60 21 L54 27 L55.5 35 L48 31 L40.5 35 L42 27 L36 21 L44.5 20 Z" fill="#F2C14E" stroke="#5B463A" stroke-width="1.3" stroke-linejoin="round"/>
  <!-- plate -->
  <ellipse cx="48" cy="64" rx="34" ry="13" fill="#FFF3E2" stroke="#5B463A" stroke-width="1.5"/>
  <ellipse cx="48" cy="62" rx="20" ry="7.5" fill="#FBEFD9" stroke="#5B463A" stroke-width="1"/>
  <!-- gourmet portion -->
  <ellipse cx="48" cy="60" rx="9" ry="5" fill="#E07B39" stroke="#5B463A" stroke-width="1.3"/>
  <ellipse cx="46" cy="58" rx="4" ry="2.4" fill="#F6C453"/>
  <circle cx="42" cy="61" r="1.6" fill="#7FB069"/>
  <circle cx="54" cy="61" r="1.6" fill="#E2574C"/>
  <!-- sauce drizzle dots -->
  <g fill="#E07B39">
    <circle cx="32" cy="66" r="1.3"/><circle cx="64" cy="66" r="1.3"/><circle cx="48" cy="68" r="1.3"/>
  </g>
  <!-- sprig -->
  <path d="M50 56 C53 50 56 50 57 52" fill="none" stroke="#7FB069" stroke-width="2" stroke-linecap="round"/>
</svg>
